<svg width="97" height="83" viewBox="0 0 97 83" fill="none" xmlns="http://www.w3.org/2000/svg">
<path d="M28.1667 53.5H40.6667C42.9583 53.5 44.8333 51.625 44.8333 49.3333V45.1667H38.5833V47.25H30.25V34.75H38.5833V36.8333H44.8333V32.6667C44.8333 30.375 42.9583 28.5 40.6667 28.5H28.1667C25.875 28.5 24 30.375 24 32.6667V49.3333C24 51.625 25.875 53.5 28.1667 53.5ZM57.3333 53.5H69.8333C72.125 53.5 74 51.625 74 49.3333V45.1667H67.75V47.25H59.4167V34.75H67.75V36.8333H74V32.6667C74 30.375 72.125 28.5 69.8333 28.5H57.3333C55.0417 28.5 53.1667 30.375 53.1667 32.6667V49.3333C53.1667 51.625 55.0417 53.5 57.3333 53.5Z" fill="black"/>
<path d="M78.1667 7.66663H19.8333C17.6232 7.66663 15.5036 8.5446 13.9408 10.1074C12.378 11.6702 11.5 13.7898 11.5 16V66C11.5 68.2101 12.378 70.3297 13.9408 71.8925C15.5036 73.4553 17.6232 74.3333 19.8333 74.3333H78.1667C82.75 74.3333 86.5 70.5833 86.5 66V16C86.5 11.4166 82.75 7.66663 78.1667 7.66663ZM78.1667 66H19.8333V16H78.1667V66Z" fill="black"/>
<line x1="95.4256" y1="74.0614" x2="7.4256" y2="1.06145" stroke="white" stroke-width="8"/>
<line x1="91.4256" y1="79.0614" x2="3.4256" y2="5.06145" stroke="black" stroke-width="8"/>
</svg>
